<?xml version="1.0" encoding="UTF-8"?>
<svg version="1.1" xmlns="http://www.w3.org/2000/svg" width="6000" height="4000">
<path d="M0 0 C1980 0 3960 0 6000 0 C6000 1320 6000 2640 6000 4000 C4020 4000 2040 4000 0 4000 C0 2680 0 1360 0 0 Z " fill="#0B7800" transform="translate(0,0)"/>
<path d="M0 0 C5.44000137 0.39909717 10.87600814 0.29437501 16.32763672 0.21655273 C20.8526975 0.17146846 24.99359624 0.43489369 29.4609375 1.25390625 C31.06051615 1.02063436 32.65968439 0.78306527 34.25390625 0.515625 C43.33780534 -0.56158073 52.66132822 0.36642679 61.75561523 0.96826172 C67.80911944 1.32286029 73.60258128 1.03822699 79.640625 0.41015625 C82.4609375 0.25390625 82.4609375 0.25390625 84.22187805 0.73803711 C87.22037128 1.42887635 90.02912512 1.3651066 93.10620117 1.3515625 C93.76532501 1.35010223 94.42444885 1.34864197 95.10354614 1.34713745 C96.53146809 1.34333981 97.95938537 1.33723207 99.38728905 1.32907104 C101.65422379 1.31626321 103.9210997 1.30977966 106.18806458 1.30493164 C111.82218451 1.29158455 117.45624891 1.26747034 123.09033203 1.24353027 C127.84763089 1.2237062 132.60490825 1.20809951 137.36223793 1.19796753 C139.5827738 1.19153979 141.80322035 1.17902833 144.02372742 1.16625977 C150.92529577 1.14173069 157.61221489 1.40001281 164.4609375 2.25390625 C166.54231508 2.25763687 168.62483109 2.2109743 170.703125 2.09765625 C171.78851562 2.04480469 172.87390625 1.99195312 173.9921875 1.9375 C175.095625 1.87691406 176.1990625 1.81632812 177.3359375 1.75390625 C179.56222969 1.63418573 181.78879251 1.51936693 184.015625 1.41015625 C184.98999512 1.35666016 185.96436523 1.30316406 186.96826172 1.24804688 C189.4609375 1.25390625 189.4609375 1.25390625 192.4609375 2.25390625 C196.96133373 3.09296317 199.47750169 3.53788715 203.9375 2.25 C209.64849983 0.7233102 215.30144646 1.29073441 221.1484375 1.62890625 C223.36054409 1.74348269 225.5727867 1.85546232 227.78515625 1.96484375 C228.87884521 2.01938721 229.97253418 2.07393066 231.09936523 2.13012695 C235.59893907 2.29580957 240.08908403 2.27423687 244.59082031 2.22094727 C247.28375054 2.25187152 249.85454985 2.47344172 252.5234375 2.81640625 C256.01641234 3.20451457 257.28348563 3.10166806 260.4609375 2.25390625 C261.80769734 2.16691601 263.1580029 2.12607545 264.50756836 2.12451172 C265.29195786 2.12135956 266.07634735 2.1182074 266.88450623 2.11495972 C267.72312698 2.11698395 268.56174774 2.11900818 269.42578125 2.12109375 C270.29610489 2.12013702 271.16642853 2.1191803 272.06312561 2.11819458 C273.9013781 2.11751496 275.739633 2.11935403 277.57788086 2.12353516 C280.38465803 2.12888001 283.19127471 2.1235861 285.99804688 2.1171875 C287.78645869 2.11784845 289.5748704 2.11912995 291.36328125 2.12109375 C292.19987778 2.11906952 293.0364743 2.11704529 293.89842224 2.11495972 C297.91540977 2.13103784 301.52338031 2.39928836 305.4609375 3.25390625 C307.33745098 3.32120098 309.2161673 3.33909226 311.09375 3.31640625 C312.67349609 3.30480469 312.67349609 3.30480469 314.28515625 3.29296875 C315.91904297 3.27363281 315.91904297 3.27363281 317.5859375 3.25390625 C319.75515861 3.22841599 321.92443791 3.20737665 324.09375 3.19140625 C325.05168457 3.17980469 326.00961914 3.16820313 326.99658203 3.15625 C329.4609375 3.25390625 329.4609375 3.25390625 332.4609375 4.25390625 C333.14212646 4.11227051 333.82331543 3.97063477 334.52514648 3.82470703 C338.823969 2.98889439 343.06442995 3.11152306 347.43359375 3.12109375 C348.87369057 3.11965866 348.87369057 3.11965866 350.34288025 3.11819458 C352.36766628 3.11751551 354.39245451 3.11935073 356.41723633 3.12353516 C359.51583743 3.12889311 362.61429398 3.12357788 365.71289062 3.1171875 C367.68229199 3.11784822 369.65169326 3.11912924 371.62109375 3.12109375 C372.54720963 3.11906952 373.4733255 3.11704529 374.42750549 3.11495972 C375.291978 3.11811188 376.1564505 3.12126404 377.04711914 3.12451172 C378.18365685 3.12570511 378.18365685 3.12570511 379.34315491 3.12692261 C381.50172852 3.25635211 383.36832938 3.73049362 385.4609375 4.25390625 C386.88281163 4.33237077 388.30793271 4.36177025 389.73193359 4.3515625 C390.56735687 4.34825928 391.40278015 4.34495605 392.26351929 4.34155273 C393.16140167 4.33325439 394.05928406 4.32495605 394.984375 4.31640625 C396.39101913 4.31072632 396.39101913 4.31072632 397.82608032 4.30493164 C401.82600372 4.28867499 405.82582356 4.26083501 409.82568359 4.23339844 C420.16785914 4.16855721 430.42583394 4.11686017 440.73608398 5.02905273 C444.32884728 5.32552572 447.85815475 5.32188328 451.4609375 5.25390625 C452.4509375 5.25390625 453.4409375 5.25390625 454.4609375 5.25390625 C455.86149258 5.24908489 457.26204587 5.24373428 458.66259766 5.23803711 C463.43488909 5.21982616 468.20717592 5.20840457 472.97949219 5.19897461 C475.02539597 5.19399009 477.07129628 5.18720006 479.1171875 5.1784668 C489.9447706 5.1335281 500.71746463 5.14408097 511.51821899 5.98924255 C513.1635525 6.11235582 514.8123033 6.18845012 516.4609375 6.25390625 C516.7909375 5.92390625 517.1209375 5.59390625 517.4609375 5.25390625 C518.92572256 5.15507289 520.39516708 5.12311336 521.86328125 5.12109375 C522.75337891 5.11980469 523.64347656 5.11851562 524.56054688 5.1171875 C525.49705078 5.12105469 526.43355469 5.12492187 527.3984375 5.12890625 C528.33107422 5.12503906 529.26371094 5.12117188 530.22460938 5.1171875 C531.11599609 5.11847656 532.00738281 5.11976563 532.92578125 5.12109375 C533.7468335 5.12222168 534.56788574 5.12334961 535.41381836 5.12451172 C537.4609375 5.25390625 537.4609375 5.25390625 539.4609375 6.25390625 C540.89029413 6.3383345 542.32355519 6.36113974 543.75537109 6.3515625 C544.6432431 6.34825928 545.53111511 6.34495605 546.44589233 6.34155273 C547.88806625 6.32910522 547.88806625 6.32910522 549.359375 6.31640625 C550.34588043 6.31261963 551.33238586 6.30883301 552.3487854 6.30493164 C556.58023064 6.28854284 560.81158043 6.26045665 565.04296875 6.23339844 C568.12759964 6.21533186 571.21221486 6.20322355 574.296875 6.19140625 C575.73297623 6.17895874 575.73297623 6.17895874 577.1980896 6.16625977 C578.09226593 6.16295654 578.98644226 6.15965332 579.90771484 6.15625 C580.69222015 6.15101318 581.47672546 6.14577637 582.28500366 6.14038086 C584.47350636 6.25456201 586.34789717 6.69796925 588.4609375 7.25390625 C590.62601066 7.34685131 592.79387593 7.38387657 594.9609375 7.37890625 C596.085 7.38148438 597.2090625 7.3840625 598.3671875 7.38671875 C601.30134465 7.38217141 601.30134465 7.38217141 603.40234375 6.6953125 C606.65260624 5.99838715 609.62464242 6.61540772 612.8984375 7.06640625 C614.84556641 7.32357422 614.84556641 7.32357422 616.83203125 7.5859375 C619.98197323 8.16574383 622.56168904 8.92997198 625.4609375 10.25390625 C623.7109375 11.81640625 623.7109375 11.81640625 621.4609375 13.25390625 C619.2109375 12.94140625 619.2109375 12.94140625 617.4609375 12.25390625 C617.4609375 11.59390625 617.4609375 10.93390625 617.4609375 10.25390625 C612.47210918 10.94930533 612.47210918 10.94930533 607.5234375 11.87890625 C604.78648157 12.21404371 602.95118308 12.10675 600.2734375 11.69140625 C596.3960986 10.83061834 596.3960986 10.83061834 593.4609375 13.25390625 C593.1309375 12.26390625 592.8009375 11.27390625 592.4609375 10.25390625 C591.4503125 10.39828125 590.4396875 10.54265625 589.3984375 10.69140625 C586.83757759 11.05724338 584.27510447 11.41201732 581.7109375 11.75390625 C578.45993574 12.16074214 578.45993574 12.16074214 575.4609375 13.25390625 C573.45531798 12.95624629 571.45553193 12.61819211 569.4609375 12.25390625 C565.04937988 11.93251101 560.63090574 11.79296621 556.2109375 11.62890625 C555.0146875 11.57734375 553.8184375 11.52578125 552.5859375 11.47265625 C551.44640625 11.42882813 550.306875 11.385 549.1328125 11.33984375 C548.0922168 11.29907715 547.05162109 11.25831055 545.97949219 11.21630859 C543.46378682 11.07172617 543.46378682 11.07172617 541.4609375 12.25390625 C540.5328125 12.08890625 539.6046875 11.92390625 538.6484375 11.75390625 C533.90775657 10.95547578 529.29761049 11.60114233 524.546875 12.09765625 C521.60350229 12.24668778 519.32270378 11.83993347 516.4609375 11.25390625 C514.9759375 11.74890625 514.9759375 11.74890625 513.4609375 12.25390625 C512.7596875 11.92390625 512.0584375 11.59390625 511.3359375 11.25390625 C507.9897468 10.09001383 505.69279552 10.5891732 502.25 11.1015625 C498.7007258 11.29543042 495.46889803 10.75028974 491.9609375 10.19140625 C486.48402332 9.35175909 482.52293863 9.31269844 477.24609375 10.87109375 C474.56927651 11.44511583 472.8617744 10.42188096 470.4609375 9.25390625 C467.01842653 9.04735559 464.74245542 9.16006694 461.4609375 10.25390625 C461.4609375 9.59390625 461.4609375 8.93390625 461.4609375 8.25390625 C459.9759375 8.74890625 459.9759375 8.74890625 458.4609375 9.25390625 C457.10097678 9.38744156 455.73636278 9.47714504 454.37109375 9.53515625 C453.58669922 9.57253906 452.80230469 9.60992188 451.99414062 9.6484375 C451.17880859 9.68324219 450.36347656 9.71804687 449.5234375 9.75390625 C447.90999266 9.82310881 446.29669711 9.89590482 444.68359375 9.97265625 C443.96953369 10.00294922 443.25547363 10.03324219 442.51977539 10.06445312 C440.4153497 10.25810121 438.49439533 10.68885033 436.4609375 11.25390625 C436.4609375 10.59390625 436.4609375 9.93390625 436.4609375 9.25390625 C431.84585976 8.21175934 431.84585976 8.21175934 427.4609375 9.25390625 C425.89887708 9.25824983 424.33632725 9.19574827 422.77734375 9.09765625 C421.38612305 9.01837891 421.38612305 9.01837891 419.96679688 8.9375 C418.00844839 8.81534688 416.05011496 8.69295201 414.09179688 8.5703125 C413.16302734 8.51746094 412.23425781 8.46460937 411.27734375 8.41015625 C410.42599854 8.35666016 409.57465332 8.30316406 408.69750977 8.24804688 C406.28752737 8.13740889 406.28752737 8.13740889 403.4609375 9.25390625 C402.4709375 9.25390625 401.4809375 9.25390625 400.4609375 9.25390625 C400.4609375 8.59390625 400.4609375 7.93390625 400.4609375 7.25390625 C399.06875 8.05828125 399.06875 8.05828125 397.6484375 8.87890625 C393.19904687 10.82325378 389.65323242 9.83082649 385.046875 8.80859375 C381.42758632 8.03225086 378.09869382 7.77842861 374.5234375 8.81640625 C372.0610281 9.33873552 370.03880822 8.91623924 367.57641602 8.54077148 C363.53221448 7.99236562 359.47023891 7.75178132 355.3984375 7.50390625 C354.52638672 7.43558594 353.65433594 7.36726563 352.75585938 7.296875 C347.39753773 6.98048659 344.19463834 7.42108215 339.4609375 10.25390625 C337.5234375 9.94140625 337.5234375 9.94140625 335.4609375 9.25390625 C333.12792817 9.21502276 330.79383949 9.20904275 328.4609375 9.25390625 C328.1309375 8.59390625 327.8009375 7.93390625 327.4609375 7.25390625 C322.11795966 6.12906881 318.51857052 6.3233118 313.33203125 7.83984375 C310.55327789 8.45476621 308.21677422 7.84025449 305.4609375 7.25390625 C303.1288573 7.1774446 300.79247872 7.16247326 298.4609375 7.25390625 C298.1309375 7.58390625 297.8009375 7.91390625 297.4609375 8.25390625 C295.79664699 8.35214562 294.12811819 8.38364256 292.4609375 8.37890625 C291.0996875 8.38277344 291.0996875 8.38277344 289.7109375 8.38671875 C287.4609375 8.25390625 287.4609375 8.25390625 286.4609375 7.25390625 C284.83664509 7.20595666 283.21052036 7.21708851 281.5859375 7.25390625 C277.54115996 7.30650414 273.66462275 7.10269491 269.6484375 6.62890625 C265.33969689 6.18211923 262.52792185 6.64602871 258.4609375 8.25390625 C255.2109375 8.50390625 255.2109375 8.50390625 252.4609375 8.25390625 C251.8009375 7.59390625 251.1409375 6.93390625 250.4609375 6.25390625 C243.90779744 5.57200984 237.19344784 6.37537922 230.67578125 7.1328125 C228.4609375 7.25390625 228.4609375 7.25390625 226.4609375 6.25390625 C220.02686182 5.91262922 213.72341656 6.2584198 207.34765625 7.10546875 C205.4609375 7.25390625 205.4609375 7.25390625 202.8359375 6.69140625 C199.3854867 6.05579689 196.73568482 7.16232381 193.4609375 8.25390625 C193.4609375 7.59390625 193.4609375 6.93390625 193.4609375 6.25390625 C191.9759375 6.74890625 191.9759375 6.74890625 190.4609375 7.25390625 C187.68815097 6.84185129 184.98702593 6.23210756 182.25 5.62890625 C179.29317976 5.23135059 177.34133992 5.55972476 174.4609375 6.25390625 C172.6101238 6.49018034 170.75549132 6.69810824 168.8984375 6.87890625 C167.96902344 6.97429688 167.03960938 7.0696875 166.08203125 7.16796875 C163.55114714 7.25094856 161.87000514 6.94749578 159.4609375 6.25390625 C155.11626005 5.31197076 151.926077 5.33292174 147.5859375 6.25390625 C143.39057126 7.0199719 139.93374799 7.3463674 135.68359375 6.61328125 C127.27261069 5.2533332 118.65321304 5.1585146 110.1484375 5.12890625 C109.40086182 5.12431396 108.65328613 5.11972168 107.88305664 5.11499023 C104.38022966 4.80693644 104.38022966 4.80693644 101.4609375 6.25390625 C99.46710325 6.51472759 97.46494283 6.71348128 95.4609375 6.87890625 C94.3678125 6.97429688 93.2746875 7.0696875 92.1484375 7.16796875 C90.818125 7.21050781 90.818125 7.21050781 89.4609375 7.25390625 C89.1309375 6.92390625 88.8009375 6.59390625 88.4609375 6.25390625 C86.48809108 5.99240967 84.50668083 5.79398001 82.5234375 5.62890625 C80.90115234 5.48582031 80.90115234 5.48582031 79.24609375 5.33984375 C76.50382096 5.03472045 76.50382096 5.03472045 74.4609375 6.25390625 C72.4609375 6.25390625 70.4609375 6.25390625 68.4609375 6.25390625 C67.8009375 6.58390625 67.1409375 6.91390625 66.4609375 7.25390625 C66.4609375 6.59390625 66.4609375 5.93390625 66.4609375 5.25390625 C63.68976446 5.3947118 60.91911109 5.54133743 58.1484375 5.69140625 C57.36275391 5.73072266 56.57707031 5.77003906 55.76757812 5.81054688 C54.6315918 5.87338867 54.6315918 5.87338867 53.47265625 5.9375 C52.77615967 5.97415771 52.07966309 6.01081543 51.36206055 6.04858398 C49.2392803 6.20971778 49.2392803 6.20971778 46.4609375 7.25390625 C46.4609375 6.59390625 46.4609375 5.93390625 46.4609375 5.25390625 C45.49027344 5.41503906 44.51960938 5.57617188 43.51953125 5.7421875 C39.18193381 6.35841645 34.89900742 6.43771379 30.5234375 6.44140625 C29.76353516 6.45365234 29.00363281 6.46589844 28.22070312 6.47851562 C24.29857317 6.48856378 20.82895079 6.20207 17.03125 5.18359375 C13.12455719 4.16631488 12.7144953 4.34664823 9.4609375 6.25390625 C7.79427083 5.92057292 6.12760417 5.58723958 4.4609375 5.25390625 C2.36015657 5.52067208 0.25953254 5.78880277 -1.83984375 6.06640625 C-5.01117844 6.28670157 -7.99836059 6.04007139 -11.1640625 5.75390625 C-17.65490765 5.19070927 -23.68475755 5.4832394 -30.1640625 6.09765625 C-33.50824385 6.25247946 -36.24993233 5.80825403 -39.5390625 5.25390625 C-42.56143202 5.17648381 -45.5792132 5.25595926 -48.6015625 5.31640625 C-54.20483143 5.38046801 -59.50718673 5.27199922 -65.0390625 4.25390625 C-70.48973681 3.27558009 -75.76633279 3.02957347 -81.2890625 3.00390625 C-82.06958984 2.99488281 -82.85011719 2.98585938 -83.65429688 2.9765625 C-88.47997825 3.00107909 -92.84711084 3.60951375 -97.52319336 4.80688477 C-101.19395658 5.62088107 -104.8825061 5.7422934 -108.5 4.67578125 C-110.85071106 4.02709527 -110.85071106 4.02709527 -114.3515625 5.31640625 C-120.0695523 6.75303929 -125.3747865 5.69007457 -131.0859375 4.76171875 C-133.9892629 4.33475913 -136.62077925 4.24370246 -139.5390625 4.25390625 C-140.5290625 3.92390625 -141.5190625 3.59390625 -142.5390625 3.25390625 C-144.87530978 3.56616287 -147.20834702 3.9027355 -149.5390625 4.25390625 C-152.05866372 4.34304927 -154.58039014 4.38407789 -157.1015625 4.37890625 C-158.36097656 4.38148438 -159.62039063 4.3840625 -160.91796875 4.38671875 C-164.5390625 4.25390625 -164.5390625 4.25390625 -167.4609375 3.75390625 C-171.40632955 3.11303038 -175.23735107 3.10825459 -179.2265625 3.12890625 C-179.98517578 3.12503906 -180.74378906 3.12117188 -181.52539062 3.1171875 C-184.7868264 3.12294467 -187.42419998 3.21561874 -190.5390625 4.25390625 C-196.66547801 4.476685 -196.66547801 4.476685 -199.49780273 3.75439453 C-201.65911553 3.22447093 -203.53937288 3.12460417 -205.76171875 3.12109375 C-206.94024414 3.11916016 -206.94024414 3.11916016 -208.14257812 3.1171875 C-208.95404297 3.12105469 -209.76550781 3.12492187 -210.6015625 3.12890625 C-211.41689453 3.12503906 -212.23222656 3.12117188 -213.07226562 3.1171875 C-214.24885742 3.11912109 -214.24885742 3.11912109 -215.44921875 3.12109375 C-216.51861694 3.12278564 -216.51861694 3.12278564 -217.60961914 3.12451172 C-219.75917054 3.1872534 -219.75917054 3.1872534 -222.5390625 4.25390625 C-224.984375 3.87890625 -224.984375 3.87890625 -227.6640625 3.25390625 C-229.28002185 2.87919104 -230.90424462 2.53516524 -232.5390625 2.25390625 C-232.8690625 2.58390625 -233.1990625 2.91390625 -233.5390625 3.25390625 C-241.06145056 3.49271222 -241.06145056 3.49271222 -243.5390625 2.25390625 C-246.93265421 2.022525 -249.31524901 2.17463897 -252.5390625 3.31640625 C-255.97146558 4.38903221 -258.08027877 4.07742619 -261.5390625 3.25390625 C-261.5390625 2.59390625 -261.5390625 1.93390625 -261.5390625 1.25390625 C-262.1578125 1.58390625 -262.7765625 1.91390625 -263.4140625 2.25390625 C-267.81469227 3.66210778 -271.95930037 3.38794807 -276.5390625 3.25390625 C-279.0183167 3.25390625 -281.49771799 3.27133635 -283.9765625 3.31640625 C-287.5390625 3.25390625 -287.5390625 3.25390625 -289.67578125 2.76171875 C-293.75914169 2.03752113 -297.77503747 2.06960983 -301.9140625 2.06640625 C-303.1515625 2.04803711 -303.1515625 2.04803711 -304.4140625 2.02929688 C-309.49961603 2.01718841 -313.64709558 2.71833847 -318.5390625 4.25390625 C-320.87239583 4.25390625 -323.20572917 4.25390625 -325.5390625 4.25390625 C-325.5390625 3.26390625 -325.5390625 2.27390625 -325.5390625 1.25390625 C-326.21453125 1.32609375 -326.89 1.39828125 -327.5859375 1.47265625 C-328.92398438 1.611875 -328.92398438 1.611875 -330.2890625 1.75390625 C-331.61164062 1.893125 -331.61164062 1.893125 -332.9609375 2.03515625 C-335.5390625 2.25390625 -335.5390625 2.25390625 -339.5390625 2.25390625 C-342.0009637 2.68473896 -344.34192273 3.19194804 -346.7265625 3.94140625 C-347.3246875 4.04453125 -347.9228125 4.14765625 -348.5390625 4.25390625 C-349.5290625 3.26390625 -349.5290625 3.26390625 -350.5390625 2.25390625 C-351.5290625 2.91390625 -352.5190625 3.57390625 -353.5390625 4.25390625 C-353.8690625 3.59390625 -354.1990625 2.93390625 -354.5390625 2.25390625 C-358.14307731 2.16689586 -361.74682262 2.11351237 -365.3515625 2.06640625 C-366.37572266 2.04126953 -367.39988281 2.01613281 -368.45507812 1.99023438 C-369.43798828 1.98056641 -370.42089844 1.97089844 -371.43359375 1.9609375 C-372.33956299 1.94522705 -373.24553223 1.9295166 -374.17895508 1.91333008 C-377.01474401 2.32254965 -377.64746629 3.20571759 -379.5390625 5.25390625 C-380.5290625 5.25390625 -381.5190625 5.25390625 -382.5390625 5.25390625 C-382.5390625 4.59390625 -382.5390625 3.93390625 -382.5390625 3.25390625 C-385.1790625 3.25390625 -387.8190625 3.25390625 -390.5390625 3.25390625 C-390.5390625 2.59390625 -390.5390625 1.93390625 -390.5390625 1.25390625 C-391.64121094 1.32609375 -392.74335938 1.39828125 -393.87890625 1.47265625 C-402.65104382 2.01708002 -411.35199383 2.38257856 -420.14233398 2.12890625 C-423.87208695 2.06392326 -425.34047671 2.12151572 -428.5390625 4.25390625 C-429.10957336 3.92826187 -429.68008423 3.60261749 -430.2678833 3.2671051 C-432.71212015 2.17670326 -434.22226859 2.0161766 -436.87792969 2.04272461 C-437.73994995 2.04606308 -438.60197021 2.04940155 -439.4901123 2.05284119 C-440.89879578 2.07309105 -440.89879578 2.07309105 -442.3359375 2.09375 C-443.33371216 2.09931412 -444.33148682 2.10487823 -445.35949707 2.11061096 C-447.53058525 2.1230843 -449.70165232 2.13977475 -451.87268066 2.16015625 C-457.70930123 2.21354443 -463.54598823 2.23276209 -469.3828125 2.25 C-471.21468109 2.25590652 -471.21468109 2.25590652 -473.08355713 2.26193237 C-487.32178168 2.28882918 -501.55405206 2.03256971 -515.7890625 1.75390625 C-517.03667358 1.72980682 -518.28428467 1.7057074 -519.56970215 1.68087769 C-526.55962819 1.54500676 -533.5494127 1.40331215 -540.5390625 1.25390625 C-540.5390625 0.92390625 -540.5390625 0.59390625 -540.5390625 0.25390625 C-538.85165787 0.25447583 -538.85165787 0.25447583 -537.13016427 0.25505692 C-487.57545489 0.27171843 -438.02074533 0.28714724 -388.46603394 0.29624939 C-387.34147755 0.29645648 -387.34147755 0.29645648 -386.19420285 0.29666774 C-369.90287706 0.29966034 -353.61155123 0.30243056 -337.32022537 0.30497158 C-329.33148487 0.30621897 -321.34274439 0.30751551 -313.35400391 0.30883789 C-312.16151171 0.30903403 -312.16151171 0.30903403 -310.94492877 0.30923413 C-285.15594454 0.31349891 -259.36696249 0.32101277 -233.57797959 0.33020347 C-207.08641556 0.33962746 -180.59485275 0.34578969 -154.10328707 0.34782124 C-150.36540625 0.34810941 -146.62752544 0.34843505 -142.88964462 0.34878349 C-142.15394341 0.34885092 -141.4182422 0.34891834 -140.66024702 0.34898781 C-128.7959695 0.3501716 -116.93169571 0.35481523 -105.06741972 0.36073828 C-93.15285782 0.36661313 -81.23829963 0.36887735 -69.32373632 0.36740763 C-62.86288412 0.36676415 -56.4020429 0.36778291 -49.94119263 0.37311172 C-44.03576584 0.37794715 -38.13035752 0.37824394 -32.22492991 0.37480514 C-30.07955148 0.37437959 -27.93417194 0.37567412 -25.78879572 0.37878943 C-22.89037378 0.3827562 -19.99202004 0.38066784 -17.09359932 0.37695408 C-15.8212127 0.3808946 -15.8212127 0.3808946 -14.5231213 0.38491473 C-9.28712086 0.36957481 -5.2569864 -0.6089471 0 0 Z M626.4609375 6.25390625 C629.50285763 6.39546095 632.54440097 6.54200526 635.5859375 6.69140625 C636.441875 6.73072266 637.2978125 6.77003906 638.1796875 6.81054688 C641.77642809 6.9903839 645.21652255 7.20970355 648.765625 7.8515625 C651.65945213 8.28353959 653.62210904 7.83716474 656.4609375 7.25390625 C658.86328125 7.62890625 658.86328125 7.62890625 661.3984375 8.25390625 C667.19326935 9.44117845 672.44325746 9.07295772 678.296875 8.4453125 C681.2874754 8.26439964 683.56575172 8.58381908 686.4609375 9.25390625 C688.48048191 8.91570472 688.48048191 8.91570472 690.4609375 8.25390625 C695.20287298 7.12487399 695.20287298 7.12487399 697.4609375 8.25390625 C700.17853858 8.32572446 702.86953138 8.34690131 705.5859375 8.31640625 C706.71708984 8.30963867 706.71708984 8.30963867 707.87109375 8.30273438 C709.73440877 8.29094124 711.59768305 8.27300567 713.4609375 8.25390625 C711.34311148 11.20566377 709.93355588 12.99113593 706.4609375 14.25390625 C705.1409375 14.25390625 703.8209375 14.25390625 702.4609375 14.25390625 C702.4609375 13.59390625 702.4609375 12.93390625 702.4609375 12.25390625 C700.87964721 12.03059426 699.29572661 11.82585981 697.7109375 11.62890625 C696.82921875 11.51289063 695.9475 11.396875 695.0390625 11.27734375 C692.49088934 11.04907324 692.49088934 11.04907324 690.60913086 12.23803711 C688.06898548 13.43925826 686.31128633 13.4978688 683.51171875 13.484375 C682.58166016 13.48244141 681.65160156 13.48050781 680.69335938 13.47851562 C679.72978516 13.46626953 678.76621094 13.45402344 677.7734375 13.44140625 C676.79826172 13.44076172 675.82308594 13.44011719 674.81835938 13.43945312 C667.60128348 13.39425223 667.60128348 13.39425223 666.4609375 12.25390625 C663.82518207 12.15366499 661.22139505 12.11515604 658.5859375 12.12890625 C657.48572266 12.12310547 657.48572266 12.12310547 656.36328125 12.1171875 C653.13660512 12.12306487 650.54250329 12.22671765 647.4609375 13.25390625 C645.79088921 12.93795117 644.12456167 12.60210666 642.4609375 12.25390625 C640.4612934 12.21617712 638.46039689 12.20740719 636.4609375 12.25390625 C636.4609375 11.26390625 636.4609375 10.27390625 636.4609375 9.25390625 C633.1609375 9.25390625 629.8609375 9.25390625 626.4609375 9.25390625 C626.4609375 8.26390625 626.4609375 7.27390625 626.4609375 6.25390625 Z " fill="#5F2600" transform="translate(3005.5390625,2646.74609375)"/>
<path d="M0 0 C106.92 0 213.84 0 324 0 C324 0.33 324 0.66 324 1 C318.09181144 1.14302594 312.18360825 1.28542572 306.27539062 1.42724609 C304.26562085 1.47557658 302.25585518 1.52407795 300.24609375 1.57275391 C297.35678147 1.64270267 294.46745497 1.71203622 291.578125 1.78125 C290.68007141 1.80312378 289.78201782 1.82499756 288.85675049 1.84753418 C288.01618103 1.86755493 287.17561157 1.88757568 286.30957031 1.90820312 C285.20370575 1.93485046 285.20370575 1.93485046 284.07550049 1.96203613 C282.05063283 1.99907385 280.02520637 2 278 2 C276.51163188 2.00195421 275.02326415 2.00422322 273.53489685 2.00672913 C256.16910515 2.03481904 238.80331041 2.05221554 221.4375 2.0625 C220.72509517 2.0629343 220.01269034 2.06336861 219.27869749 2.06381607 C167.95487895 2.09420979 116.63490809 1.87330756 65.3125 1.5 C64.48977396 1.49402628 63.66704791 1.48805257 62.81939077 1.48189783 C41.87952706 1.32967963 20.93973158 1.16945721 0 1 C0 0.67 0 0.34 0 0 Z " fill="#582200" transform="translate(2140,2647)"/>
<path d="M0 0 C9.15362184 -0.02319943 18.30723351 -0.04095382 27.46087837 -0.05181217 C31.71155971 -0.05702437 35.96222089 -0.06409179 40.21289062 -0.07543945 C44.31720044 -0.08632746 48.42149091 -0.09228936 52.52581406 -0.09487724 C54.08944885 -0.09672084 55.65308261 -0.1003209 57.21670914 -0.10573006 C59.41158565 -0.11301901 61.6063828 -0.11398764 63.80126953 -0.11352539 C65.67324509 -0.11685631 65.67324509 -0.11685631 67.58303833 -0.12025452 C70.81754791 -0.00642111 73.82119174 0.42046089 77 1 C78.95740193 1.06388388 80.91670147 1.08638169 82.875 1.0625 C84.32519531 1.04896484 84.32519531 1.04896484 85.8046875 1.03515625 C86.89136719 1.01775391 86.89136719 1.01775391 88 1 C87.67 1.66 87.34 2.32 87 3 C84.3125 3.44921875 84.3125 3.44921875 81 3.6875 C79.906875 3.77386719 78.81375 3.86023437 77.6875 3.94921875 C76.800625 3.96597656 75.91375 3.98273437 75 4 C74.505 3.505 74.505 3.505 74 3 C72.02715358 2.73850342 70.04574333 2.54007376 68.0625 2.375 C66.98097656 2.27960937 65.89945313 2.18421875 64.78515625 2.0859375 C62.04288346 1.7808142 62.04288346 1.7808142 60 3 C58 3 56 3 54 3 C53.34 3.33 52.68 3.66 52 4 C52 3.34 52 2.68 52 2 C49.22882696 2.14080555 46.45817359 2.28743118 43.6875 2.4375 C42.90181641 2.47681641 42.11613281 2.51613281 41.30664062 2.55664062 C40.54931641 2.59853516 39.79199219 2.64042969 39.01171875 2.68359375 C38.31522217 2.72025146 37.61872559 2.75690918 36.90112305 2.79467773 C34.7783428 2.95581153 34.7783428 2.95581153 32 4 C32 3.34 32 2.68 32 2 C30.5459375 2.24169922 30.5459375 2.24169922 29.0625 2.48828125 C24.70333701 3.10772971 20.39727477 3.18381101 16 3.1875 C15.23171875 3.19974609 14.4634375 3.21199219 13.671875 3.22460938 C8.73049595 3.23721493 4.68647849 2.57670088 0 1 C0 0.67 0 0.34 0 0 Z " fill="#6E2D00" transform="translate(3020,2650)"/>
<path d="M0 0 C0 0.66 0 1.32 0 2 C2.770986 1.8567257 5.54176105 1.71041993 8.3125 1.5625 C9.07884766 1.52318359 9.84519531 1.48386719 10.63476562 1.44335938 C14.84837098 1.21606946 19.02350867 0.89344584 23.21875 0.4375 C29.89698889 -0.19050894 36.49765685 0.12374455 43.1875 0.4375 C45.0447168 0.51581055 45.0447168 0.51581055 46.93945312 0.59570312 C49.95997908 0.72398801 52.98005141 0.85887493 56 1 C51.60492476 3.93005016 47.93641451 4.22869268 42.8125 3.4375 C38.9351611 2.57671209 38.9351611 2.57671209 36 5 C35.505 3.515 35.505 3.515 35 2 C33.4840625 2.2165625 33.4840625 2.2165625 31.9375 2.4375 C29.37664009 2.80333713 26.81416697 3.15811107 24.25 3.5 C20.99899824 3.90683589 20.99899824 3.90683589 18 5 C15.99623399 4.69010826 13.99694246 4.35118643 12 4 C8.87859022 3.74093563 5.75323722 3.58967103 2.625 3.4375 C1.79355469 3.39431641 0.96210938 3.35113281 0.10546875 3.30664062 C-1.92953228 3.20138195 -3.96474703 3.10026928 -6 3 C-6 2.34 -6 1.68 -6 1 C-3.92446352 0.4465236 -2.15634036 0 0 0 Z " fill="#652800" transform="translate(3563,2655)"/>
<path d="M0 0 C1.99725808 0.01591148 3.9946219 0.01586914 5.99194336 0.01586914 C7.65861003 0.01586914 9.32527669 0.01586914 10.99194336 0.01586914 C11.48694336 1.00586914 11.48694336 1.00586914 11.99194336 2.01586914 C10.32131836 2.23243164 10.32131836 2.23243164 8.61694336 2.45336914 C5.17052289 2.79958949 5.17052289 2.79958949 2.99194336 4.01586914 C2.06381836 3.85086914 1.13569336 3.68586914 0.17944336 3.51586914 C-4.56123757 2.71743867 -9.17138365 3.36310522 -13.92211914 3.85961914 C-16.86549185 4.00865067 -19.14629036 3.60189636 -22.00805664 3.01586914 C-22.99805664 3.34586914 -23.98805664 3.67586914 -25.00805664 4.01586914 C-27.69555664 3.07836914 -27.69555664 3.07836914 -30.00805664 2.01586914 C-30.00805664 1.68586914 -30.00805664 1.35586914 -30.00805664 1.01586914 C-19.98499795 0.00816486 -10.06326582 -0.09251693 0 0 Z " fill="#672A00" transform="translate(3544.008056640625,2654.984130859375)"/>
<path d="M0 0 C6.19303089 -0.0247204 12.38603305 -0.04286973 18.57910156 -0.05493164 C20.68587749 -0.05996013 22.79264992 -0.06678376 24.89941406 -0.07543945 C27.92774314 -0.08756989 30.95602606 -0.09324317 33.984375 -0.09765625 C35.39707672 -0.10539818 35.39707672 -0.10539818 36.83831787 -0.11329651 C37.71892883 -0.11337204 38.59953979 -0.11344757 39.50683594 -0.11352539 C40.27960876 -0.115746 41.05238159 -0.11796661 41.84857178 -0.12025452 C44.02468378 0.00137971 45.90250248 0.42810222 48 1 C49.74690919 1.2143934 51.4974023 1.40107653 53.25 1.5625 C54.14203125 1.64628906 55.0340625 1.73007813 55.953125 1.81640625 C56.62859375 1.87699219 57.3040625 1.93757813 58 2 C58 2.33 58 2.66 58 3 C56.2300132 3.19532961 54.45895721 3.38098882 52.6875 3.5625 C51.20830078 3.71912109 51.20830078 3.71912109 49.69921875 3.87890625 C47 4 47 4 44 3 C42.29361591 2.85090192 40.58261256 2.75200639 38.87109375 2.68359375 C37.84363037 2.64161865 36.81616699 2.59964355 35.75756836 2.55639648 C34.6619458 2.51716064 33.56632324 2.4779248 32.4375 2.4375 C31.32318604 2.3950415 30.20887207 2.35258301 29.06079102 2.30883789 C19.70371822 1.97535168 10.36154001 1.89239609 1 2 C0.67 1.34 0.34 0.68 0 0 Z " fill="#552100" transform="translate(3343,2650)"/>
<path d="M0 0 C5.58674804 -0.02478762 11.1734638 -0.04290152 16.76025391 -0.05493164 C18.65934812 -0.05994885 20.5584385 -0.06676411 22.45751953 -0.07543945 C25.19304352 -0.08761963 27.92851626 -0.09325454 30.6640625 -0.09765625 C31.50804596 -0.10281754 32.35202942 -0.10797882 33.22158813 -0.11329651 C37.59835842 -0.11370954 41.69004167 0.11911036 46 1 C44 3 44 3 41.7578125 3.23046875 C40.88898437 3.21628906 40.02015625 3.20210937 39.125 3.1875 C38.26132813 3.18105469 37.39765625 3.17460937 36.5078125 3.16796875 C34 3 34 3 31.91796875 2.421875 C29.67105788 1.77042837 29.67105788 1.77042837 26.1875 3.0625 C20.4695102 4.49913304 15.164276 3.43616832 9.453125 2.5078125 C6.55791858 2.08204685 3.9154258 1.89985179 1 2 C0.67 1.34 0.34 0.68 0 0 Z " fill="#6D2D00" transform="translate(2865,2649)"/>
<path d="M0 0 C0 0.33 0 0.66 0 1 C-8.22868387 2.16528203 -8.22868387 2.16528203 -11.625 1.4375 C-15.0754508 0.80189064 -17.72525268 1.90841756 -21 3 C-21 2.34 -21 1.68 -21 1 C-21.99 1.33 -22.98 1.66 -24 2 C-26.1875 1.0625 -26.1875 1.0625 -28 0 C-18.29915458 -1.47844069 -9.63252185 -2.70459577 0 0 Z " fill="#6B2C00" transform="translate(3220,2652)"/>
<path d="M0 0 C4.62 0 9.24 0 14 0 C12.515 1.98 12.515 1.98 11 4 C10.01 4 9.02 4 8 4 C8 3.34 8 2.68 8 2 C5.36 2 2.72 2 0 2 C0 1.34 0 0.68 0 0 Z " fill="#6A2B00" transform="translate(2615,2648)"/>
<path d="M0 0 C-0.66 0.66 -1.32 1.32 -2 2 C-3.34164079 1.7018576 -4.67323492 1.35858516 -6 1 C-8.33300933 0.96111651 -10.66709801 0.9551365 -13 1 C-13 0.34 -13 -0.32 -13 -1 C-8.05632546 -2.20577428 -4.79137588 -1.6290678 0 0 Z " fill="#6F2E00" transform="translate(3347,2655)"/>
<path d="M0 0 C3.96 0 7.92 0 12 0 C11.67 0.66 11.34 1.32 11 2 C7.0832314 3.23098442 3.97610732 2.83220851 0 2 C0 1.34 0 0.68 0 0 Z " fill="#672A00" transform="translate(2744,2648)"/>
<path d="M0 0 C3.96 0.33 7.92 0.66 12 1 C12 1.33 12 1.66 12 2 C9.03 2.66 6.06 3.32 3 4 C3 3.34 3 2.68 3 2 C2.01 1.67 1.02 1.34 0 1 C0 0.67 0 0.34 0 0 Z " fill="#6A2B00" transform="translate(3439,2654)"/>
<path d="M0 0 C3.63 0 7.26 0 11 0 C5.48 2.76 5.48 2.76 3 3 C2.01 2.01 1.02 1.02 0 0 Z " fill="#5B2400" transform="translate(3769,2657)"/>
</svg>
